<mxfile host="app.diagrams.net" modified="2023-02-13T06:38:45.933Z" agent="5.0 (X11)" etag="55wgzKOla_k85w5QS79U" version="20.8.18" type="github">
  <diagram name="Page-1" id="mLJzGOR0H96hJh574J3U">
    <mxGraphModel dx="1144" dy="647" grid="1" gridSize="10" guides="1" tooltips="1" connect="1" arrows="1" fold="1" page="1" pageScale="1" pageWidth="850" pageHeight="1100" math="0" shadow="0">
      <root>
        <mxCell id="0" />
        <mxCell id="1" parent="0" />
        <mxCell id="vfQfOZBOzahRSfdwLhmu-1" value="Admin" style="swimlane;horizontal=0;whiteSpace=wrap;html=1;" vertex="1" parent="1">
          <mxGeometry x="40" y="131" width="910" height="160" as="geometry" />
        </mxCell>
        <mxCell id="vfQfOZBOzahRSfdwLhmu-2" value="tick/ untick some permission and choose save&amp;nbsp; " style="shape=ellipse;html=1;fillColor=strokeColor;strokeWidth=2;verticalLabelPosition=bottom;verticalAlignment=top;perimeter=ellipsePerimeter;" vertex="1" parent="vfQfOZBOzahRSfdwLhmu-1">
          <mxGeometry x="140" y="20" width="40" height="40" as="geometry" />
        </mxCell>
        <mxCell id="vfQfOZBOzahRSfdwLhmu-3" value="" style="ellipse;html=1;shape=endState;fillColor=#000000;strokeColor=#ff0000;strokeWidth=2;fontFamily=Helvetica;fontSize=12;fontColor=default;" vertex="1" parent="vfQfOZBOzahRSfdwLhmu-1">
          <mxGeometry x="860" y="70" width="30" height="30" as="geometry" />
        </mxCell>
        <mxCell id="vfQfOZBOzahRSfdwLhmu-4" value="Choose a role" style="rounded=1;whiteSpace=wrap;html=1;strokeWidth=2;fontFamily=Helvetica;fontSize=12;" vertex="1" parent="vfQfOZBOzahRSfdwLhmu-1">
          <mxGeometry x="290" y="50" width="120" height="60" as="geometry" />
        </mxCell>
        <mxCell id="vfQfOZBOzahRSfdwLhmu-5" value="&lt;div&gt;RoleManagementController&lt;/div&gt;" style="swimlane;horizontal=0;whiteSpace=wrap;html=1;" vertex="1" parent="1">
          <mxGeometry x="40" y="300" width="910" height="150" as="geometry" />
        </mxCell>
        <mxCell id="vfQfOZBOzahRSfdwLhmu-6" value="Display Role List" style="rounded=1;whiteSpace=wrap;html=1;strokeWidth=2;fontFamily=Helvetica;fontSize=12;" vertex="1" parent="vfQfOZBOzahRSfdwLhmu-5">
          <mxGeometry x="290" y="20" width="120" height="60" as="geometry" />
        </mxCell>
        <mxCell id="vfQfOZBOzahRSfdwLhmu-7" value="Display Role List" style="rounded=1;whiteSpace=wrap;html=1;strokeWidth=2;fontFamily=Helvetica;fontSize=12;" vertex="1" parent="vfQfOZBOzahRSfdwLhmu-5">
          <mxGeometry x="50" y="20" width="120" height="60" as="geometry" />
        </mxCell>
        <mxCell id="vfQfOZBOzahRSfdwLhmu-8" value="Display Role permission" style="rounded=1;whiteSpace=wrap;html=1;strokeWidth=2;fontFamily=Helvetica;fontSize=12;" vertex="1" parent="vfQfOZBOzahRSfdwLhmu-5">
          <mxGeometry x="760" y="20" width="120" height="60" as="geometry" />
        </mxCell>
        <mxCell id="vfQfOZBOzahRSfdwLhmu-9" value="UserController" style="swimlane;horizontal=0;whiteSpace=wrap;html=1;" vertex="1" parent="1">
          <mxGeometry x="40" y="460" width="910" height="200" as="geometry" />
        </mxCell>
        <mxCell id="vfQfOZBOzahRSfdwLhmu-10" style="edgeStyle=orthogonalEdgeStyle;rounded=0;orthogonalLoop=1;jettySize=auto;html=1;entryX=0;entryY=0.5;entryDx=0;entryDy=0;dashed=1;" edge="1" parent="vfQfOZBOzahRSfdwLhmu-9" source="vfQfOZBOzahRSfdwLhmu-11" target="vfQfOZBOzahRSfdwLhmu-12">
          <mxGeometry relative="1" as="geometry">
            <mxPoint x="590" y="65" as="targetPoint" />
            <Array as="points" />
          </mxGeometry>
        </mxCell>
        <mxCell id="vfQfOZBOzahRSfdwLhmu-11" value="Query all Role" style="rounded=1;whiteSpace=wrap;html=1;strokeWidth=2;fontFamily=Helvetica;fontSize=12;" vertex="1" parent="vfQfOZBOzahRSfdwLhmu-9">
          <mxGeometry x="50" y="60" width="120" height="60" as="geometry" />
        </mxCell>
        <mxCell id="vfQfOZBOzahRSfdwLhmu-12" value="Send back Role List" style="rounded=1;whiteSpace=wrap;html=1;strokeWidth=2;fontFamily=Helvetica;fontSize=12;" vertex="1" parent="vfQfOZBOzahRSfdwLhmu-9">
          <mxGeometry x="290" y="60" width="120" height="60" as="geometry" />
        </mxCell>
        <mxCell id="vfQfOZBOzahRSfdwLhmu-13" value="Query Role permission" style="rounded=1;whiteSpace=wrap;html=1;strokeWidth=2;fontFamily=Helvetica;fontSize=12;" vertex="1" parent="vfQfOZBOzahRSfdwLhmu-9">
          <mxGeometry x="500" y="60" width="120" height="60" as="geometry" />
        </mxCell>
        <mxCell id="vfQfOZBOzahRSfdwLhmu-14" style="edgeStyle=orthogonalEdgeStyle;rounded=0;orthogonalLoop=1;jettySize=auto;html=1;entryX=0.5;entryY=0;entryDx=0;entryDy=0;dashed=1;strokeWidth=1;fontFamily=Helvetica;fontSize=12;fontColor=default;" edge="1" parent="1" source="vfQfOZBOzahRSfdwLhmu-2" target="vfQfOZBOzahRSfdwLhmu-7">
          <mxGeometry relative="1" as="geometry" />
        </mxCell>
        <mxCell id="vfQfOZBOzahRSfdwLhmu-15" value="Change Permission" style="text;html=1;strokeColor=none;fillColor=none;align=center;verticalAlign=middle;whiteSpace=wrap;rounded=0;fontSize=19;" vertex="1" parent="1">
          <mxGeometry x="460" y="80" width="180" height="30" as="geometry" />
        </mxCell>
        <mxCell id="vfQfOZBOzahRSfdwLhmu-16" style="edgeStyle=orthogonalEdgeStyle;rounded=0;orthogonalLoop=1;jettySize=auto;html=1;dashed=1;" edge="1" parent="1" source="vfQfOZBOzahRSfdwLhmu-7" target="vfQfOZBOzahRSfdwLhmu-11">
          <mxGeometry relative="1" as="geometry" />
        </mxCell>
        <mxCell id="vfQfOZBOzahRSfdwLhmu-17" style="edgeStyle=orthogonalEdgeStyle;rounded=0;orthogonalLoop=1;jettySize=auto;html=1;entryX=0.5;entryY=1;entryDx=0;entryDy=0;dashed=1;" edge="1" parent="1" source="vfQfOZBOzahRSfdwLhmu-12" target="vfQfOZBOzahRSfdwLhmu-6">
          <mxGeometry relative="1" as="geometry" />
        </mxCell>
        <mxCell id="vfQfOZBOzahRSfdwLhmu-18" style="edgeStyle=orthogonalEdgeStyle;rounded=0;orthogonalLoop=1;jettySize=auto;html=1;entryX=0.5;entryY=1;entryDx=0;entryDy=0;dashed=1;" edge="1" parent="1" source="vfQfOZBOzahRSfdwLhmu-6" target="vfQfOZBOzahRSfdwLhmu-4">
          <mxGeometry relative="1" as="geometry" />
        </mxCell>
        <mxCell id="vfQfOZBOzahRSfdwLhmu-19" style="edgeStyle=orthogonalEdgeStyle;rounded=0;orthogonalLoop=1;jettySize=auto;html=1;dashed=1;" edge="1" parent="1" source="vfQfOZBOzahRSfdwLhmu-4" target="vfQfOZBOzahRSfdwLhmu-13">
          <mxGeometry relative="1" as="geometry" />
        </mxCell>
        <mxCell id="vfQfOZBOzahRSfdwLhmu-20" style="edgeStyle=orthogonalEdgeStyle;rounded=0;orthogonalLoop=1;jettySize=auto;html=1;entryX=0.433;entryY=1.017;entryDx=0;entryDy=0;entryPerimeter=0;dashed=1;" edge="1" parent="1" source="vfQfOZBOzahRSfdwLhmu-13" target="vfQfOZBOzahRSfdwLhmu-8">
          <mxGeometry relative="1" as="geometry" />
        </mxCell>
        <mxCell id="vfQfOZBOzahRSfdwLhmu-21" style="edgeStyle=orthogonalEdgeStyle;rounded=0;orthogonalLoop=1;jettySize=auto;html=1;entryX=0;entryY=0.5;entryDx=0;entryDy=0;dashed=1;" edge="1" parent="1" source="vfQfOZBOzahRSfdwLhmu-8" target="vfQfOZBOzahRSfdwLhmu-3">
          <mxGeometry relative="1" as="geometry" />
        </mxCell>
      </root>
    </mxGraphModel>
  </diagram>
</mxfile>
